<?xml version="1.0" standalone="no"?>
<!DOCTYPE svg PUBLIC "-//W3C//DTD SVG 20010904//EN"
 "http://www.w3.org/TR/2001/REC-SVG-20010904/DTD/svg10.dtd">
<svg version="1.0" xmlns="http://www.w3.org/2000/svg"
 width="300.000000pt" height="300.000000pt" viewBox="0 0 300.000000 300.000000"
 preserveAspectRatio="xMidYMid meet">
<metadata>
Created by potrace 1.11, written by Peter Selinger 2001-2013
</metadata>
<g transform="translate(0.000000,300.000000) scale(0.100000,-0.100000)"
fill="#000000" stroke="none">
<path d="M440 2122 c-74 -5 -99 -13 -130 -43 -56 -54 -60 -75 -60 -327 0 -218
1 -231 23 -271 32 -61 86 -90 166 -88 35 1 61 -2 61 -8 0 -7 3 -7 8 0 4 6 30
10 57 10 28 0 53 -4 57 -10 5 -7 8 -7 8 0 0 6 32 10 75 10 43 0 75 -4 75 -10
0 -7 3 -7 8 0 4 6 30 10 57 10 28 0 53 -4 57 -10 5 -7 8 -7 8 0 0 6 17 9 40 7
22 -2 40 -8 40 -14 0 -5 4 -7 9 -4 16 11 24 -28 25 -127 3 -154 38 -142 -402
-142 l-367 0 -3 -118 -3 -118 439 3 439 3 42 29 c23 16 39 31 37 34 -3 2 4 13
15 25 10 11 20 35 20 51 5 101 4 473 0 481 -3 6 -6 15 -6 20 0 25 -42 75 -79
96 -39 22 -46 22 -364 23 -383 1 -352 -11 -352 136 0 145 -36 133 415 133
l375 0 0 109 0 108 -42 0 c-307 3 -721 4 -748 2z"/>
<path d="M1364 2020 c0 -61 -3 -110 -8 -110 -5 0 -4 -6 1 -12 5 -7 7 -49 6
-93 -3 -94 -3 -78 -1 -281 1 -88 -2 -166 -6 -172 -4 -7 -4 -12 1 -12 4 0 8
-52 8 -115 0 -63 -4 -115 -9 -115 -5 0 -4 -6 1 -12 10 -14 10 -156 0 -182 -4
-9 -2 -16 3 -16 5 0 7 -7 4 -15 -5 -13 38 -15 356 -15 l362 0 -110 110 -110
110 -126 0 c-82 0 -125 4 -121 10 3 6 1 10 -6 10 -10 0 -10 3 -2 11 8 8 8 20
3 35 -6 14 -6 26 0 29 6 3 6 15 0 29 -5 13 -7 26 -4 29 9 8 9 847 0 847 -5 0
-3 6 3 13 6 8 8 17 4 20 -3 4 -61 7 -128 7 l-122 0 1 -110z"/>
<path d="M2092 1815 l-314 -315 315 -315 315 -315 172 2 172 3 -258 256 c-143
141 -277 275 -299 296 -22 22 -46 47 -53 56 -12 14 20 50 285 315 164 164 304
306 312 315 13 16 2 17 -160 17 l-174 -1 -313 -314z"/>
</g>
</svg>
