<svg width="36" height="36" viewBox="0 0 36 36" fill="none" xmlns="http://www.w3.org/2000/svg">
<rect width="36" height="36" rx="18" fill="#59BBF2"/>
<path d="M23.9977 17.9995C23.9977 18.866 23.9977 19.7325 23.9977 20.599C23.9918 21.2778 23.7804 21.9389 23.3915 22.4953C23.0026 23.0517 22.4544 23.4773 21.8189 23.7162C21.2784 23.918 20.7041 24.0138 20.1273 23.9984C18.6245 23.9984 17.1216 23.9984 15.6187 23.9984C14.8915 24.0151 14.1763 23.8107 13.5676 23.4124C12.8321 22.957 12.3033 22.2327 12.0935 21.3936C12.0332 21.1372 12.0018 20.8749 12 20.6116C12 18.9038 12 17.196 12 15.4792C12 14.5983 12.2463 13.8073 12.8737 13.1692C13.4664 12.5294 14.2714 12.1269 15.1388 12.0366C15.6781 11.9881 16.2174 12.0025 16.7459 12.0007C17.8928 12.0007 19.0415 12.0007 20.1902 12.0007C20.9686 12.0007 21.7165 12.1265 22.3816 12.558C23.1193 12.9985 23.6584 13.7069 23.8863 14.5354C23.9551 14.8179 23.9907 15.1075 23.9923 15.3983C24.0049 16.2648 23.9923 17.1313 23.9923 17.9977L23.9977 17.9995ZM12.8988 17.9995C12.8988 18.875 12.8988 19.7487 12.8988 20.6242C12.8988 21.6398 13.4381 22.3284 14.301 22.7993C14.7206 23.011 15.1869 23.113 15.6565 23.096C17.2043 23.096 18.7521 23.096 20.2999 23.096C20.8377 23.1052 21.3681 22.9692 21.8351 22.7023C22.6477 22.2313 23.0935 21.5374 23.0935 20.5936C23.1043 18.8409 23.1079 17.0881 23.0935 15.3336C23.0935 14.2963 22.5057 13.6114 21.6194 13.1566C21.2207 12.9674 20.7822 12.8774 20.3412 12.8941C18.8024 12.8941 17.2636 12.8941 15.723 12.8941C15.2298 12.8812 14.741 12.9892 14.2992 13.2087C13.4381 13.6563 12.9186 14.3538 12.8988 15.3515C12.8773 16.2342 12.8988 17.1169 12.8988 17.9995Z" fill="white"/>
<path d="M18.0043 20.5637C17.4559 20.5555 16.9221 20.3854 16.4701 20.0746C16.0182 19.7639 15.6682 19.3265 15.4642 18.8173C15.2602 18.3082 15.2113 17.7501 15.3236 17.2132C15.436 16.6764 15.7046 16.1847 16.0957 15.8001C16.4867 15.4156 16.9828 15.1552 17.5215 15.0518C18.0601 14.9484 18.6173 15.0066 19.123 15.2191C19.6286 15.4316 20.0602 15.7888 20.3633 16.2459C20.6665 16.703 20.8277 17.2396 20.8267 17.7881C20.8181 18.5297 20.5166 19.2378 19.9878 19.7578C19.459 20.2778 18.746 20.5675 18.0043 20.5637ZM16.0862 17.7827C16.079 18.1645 16.1858 18.5399 16.3927 18.8609C16.5997 19.1819 16.8976 19.4341 17.2484 19.5852C17.5991 19.7363 17.987 19.7796 18.3624 19.7095C18.7379 19.6393 19.084 19.459 19.3566 19.1915C19.6292 18.924 19.816 18.5814 19.8932 18.2073C19.9704 17.8332 19.9345 17.4446 19.79 17.0911C19.6455 16.7375 19.3991 16.4349 19.082 16.2219C18.7649 16.0089 18.3917 15.8952 18.0097 15.8951C17.5052 15.8931 17.0202 16.0903 16.6601 16.4436C16.3 16.797 16.0938 17.2782 16.0862 17.7827Z" fill="white"/>
<path d="M21.745 14.7673C21.7407 14.8834 21.7024 14.9957 21.6347 15.0902C21.5671 15.1846 21.4731 15.2571 21.3645 15.2984C21.2559 15.3398 21.1375 15.3483 21.0242 15.3228C20.9108 15.2973 20.8075 15.239 20.7271 15.1551C20.6466 15.0712 20.5927 14.9655 20.572 14.8512C20.5513 14.7369 20.5647 14.619 20.6106 14.5122C20.6564 14.4055 20.7327 14.3146 20.8299 14.2509C20.9271 14.1873 21.0409 14.1537 21.1571 14.1543C21.3155 14.1604 21.4653 14.2277 21.5749 14.342C21.6846 14.4564 21.7456 14.6089 21.745 14.7673Z" fill="white"/>
</svg>
