<svg width="36" height="36" viewBox="0 0 36 36" fill="none" xmlns="http://www.w3.org/2000/svg">
<rect width="36" height="36" rx="18" fill="#59BBF2"/>
<path d="M19.239 15.9671C19.239 16.318 19.2248 16.6487 19.2228 16.9753C19.2184 17.1535 19.2395 17.3314 19.2855 17.5036C19.3134 17.6136 19.3758 17.7118 19.4636 17.7839C19.4853 17.8009 19.5108 17.8125 19.5378 17.8178C19.5649 17.823 19.5929 17.8218 19.6194 17.8142C19.714 17.7841 19.8004 17.7331 19.8724 17.665C20.0454 17.506 20.2014 17.3297 20.3378 17.1387C20.8217 16.4712 21.2207 15.7464 21.5257 14.9811C21.5803 14.8521 21.6329 14.725 21.6835 14.594C21.7197 14.4938 21.7918 14.4105 21.8859 14.3601C21.9448 14.3384 22.0073 14.3282 22.07 14.3298C22.0984 14.3298 22.1287 14.3298 22.1591 14.3298H24.1827C24.3203 14.3298 24.4579 14.3298 24.5874 14.3298C24.657 14.3387 24.7251 14.3571 24.7898 14.3842C24.8422 14.3995 24.8881 14.4318 24.92 14.476C24.9519 14.5202 24.968 14.5738 24.9658 14.6282C24.9658 14.7667 24.9383 14.9037 24.8849 15.0315C24.7492 15.3589 24.5782 15.6706 24.3749 15.9611C23.9965 16.5378 23.5655 17.0762 23.1608 17.6266C23.0252 17.8101 22.8977 17.9997 22.7763 18.1912C22.7044 18.2973 22.6715 18.4248 22.6832 18.5522C22.7004 18.6756 22.7572 18.7902 22.8451 18.8788C22.9928 19.0361 23.1425 19.1914 23.3004 19.3386C23.7233 19.7147 24.1201 20.1189 24.4883 20.5484C24.6599 20.7523 24.8079 20.9749 24.9294 21.2118C24.9593 21.2758 24.9797 21.3437 24.9901 21.4135C25.0084 21.4906 25.0012 21.5716 24.9694 21.6443C24.9377 21.717 24.8832 21.7775 24.8141 21.8168C24.6788 21.9019 24.5228 21.9486 24.3628 21.9519C23.7658 21.968 23.1689 21.964 22.5739 21.9982C22.1913 22.0168 21.816 21.8883 21.5257 21.6393C21.3064 21.4597 21.1032 21.2613 20.9186 21.0465C20.7162 20.8267 20.528 20.6049 20.3115 20.3952C20.2195 20.3052 20.1153 20.2285 20.0019 20.1673C19.9292 20.123 19.843 20.1059 19.7588 20.1192C19.6746 20.1325 19.5979 20.1753 19.5425 20.2399C19.4423 20.3603 19.3722 20.5026 19.3381 20.6553C19.2732 20.888 19.2372 21.1277 19.2309 21.3691C19.2278 21.4292 19.2217 21.4891 19.2127 21.5486C19.2013 21.6248 19.1687 21.6964 19.1187 21.7552C19.0686 21.814 19.003 21.8577 18.9294 21.8813C18.8313 21.9222 18.7261 21.9434 18.6197 21.9438C18.3526 21.9438 18.0855 21.9438 17.8103 21.9438C17.3388 21.9384 16.8721 21.8489 16.4322 21.6796C15.6379 21.3815 14.9272 20.8974 14.36 20.2681C13.7972 19.6512 13.2957 18.9813 12.8625 18.2679C12.1765 17.1596 11.568 16.0055 11.0413 14.8137C11.0069 14.7351 10.9937 14.649 11.0028 14.5637C11.0048 14.5318 11.0154 14.5011 11.0336 14.4748C11.0518 14.4485 11.0768 14.4276 11.106 14.4145C11.2058 14.3643 11.316 14.338 11.4278 14.3379H13.4393C13.5586 14.3459 13.6729 14.3883 13.7685 14.4599C13.864 14.5315 13.9367 14.6292 13.9776 14.7412C14.1513 15.1988 14.3604 15.6424 14.6029 16.068C14.8654 16.5417 15.1609 16.9965 15.4872 17.429C15.5979 17.589 15.7347 17.7294 15.8919 17.8444C15.942 17.8861 16.0035 17.9119 16.0684 17.9184C16.1334 17.9248 16.1988 17.9117 16.2562 17.8807C16.3189 17.8433 16.3679 17.7867 16.3958 17.7194C16.4693 17.5512 16.5144 17.372 16.5293 17.1891C16.5735 16.7631 16.5823 16.3341 16.5557 15.9066C16.5507 15.6515 16.5243 15.3972 16.4767 15.1465C16.4646 15.0839 16.4423 15.0235 16.4302 14.9609C16.4156 14.9028 16.3885 14.8485 16.3507 14.8019C16.313 14.7552 16.2655 14.7173 16.2116 14.6907C16.0727 14.6047 15.9153 14.5529 15.7523 14.5395C15.7057 14.5395 15.6895 14.5153 15.7098 14.475C15.7271 14.4348 15.7503 14.3975 15.7786 14.3641C15.9266 14.2037 16.1264 14.1002 16.3432 14.0717C16.6572 14.018 16.9757 13.9944 17.2943 14.0011C17.6484 14.0011 18.0046 14.0011 18.3607 14.0233C18.5153 14.0331 18.6685 14.0581 18.8181 14.0979C18.9372 14.1215 19.0448 14.1846 19.1234 14.2768C19.2021 14.3691 19.2471 14.4851 19.2511 14.6061C19.2683 14.8005 19.2744 14.9957 19.2693 15.1908C19.2653 15.455 19.2491 15.7211 19.239 15.9671Z" fill="white"/>
</svg>
