<svg width="15" height="13" viewBox="0 0 15 13" fill="none" xmlns="http://www.w3.org/2000/svg">
<path d="M0.312724 1.78777C2.37142 3.53126 5.98378 6.59858 7.0455 7.55498C7.18803 7.68406 7.3409 7.74969 7.4996 7.74969C7.65798 7.74969 7.81059 7.68468 7.95279 7.55621C9.01542 6.59888 12.6278 3.53126 14.6865 1.78777C14.8147 1.67943 14.8342 1.489 14.7304 1.35655C14.4906 1.05049 14.1329 0.875 13.7496 0.875H1.24961C0.866318 0.875 0.508632 1.05049 0.268779 1.35658C0.165009 1.489 0.18455 1.67943 0.312724 1.78777Z" fill="#FFD155"/>
<path d="M14.8187 2.73226C14.708 2.6807 14.5777 2.69868 14.4855 2.77743C12.2024 4.71284 9.28863 7.19365 8.37188 8.01973C7.85733 8.4842 7.14322 8.4842 6.62748 8.01911C5.65031 7.13868 2.3782 4.35701 0.514512 2.77741C0.421729 2.69866 0.291123 2.68128 0.18126 2.73223C0.0708105 2.78353 0 2.89401 0 3.01576V10.8747C0 11.5641 0.560596 12.1247 1.25001 12.1247H13.75C14.4394 12.1247 15 11.5641 15 10.8747V3.01576C15 2.89401 14.9292 2.78324 14.8187 2.73226Z" fill="#FFD155"/>
</svg>
