<svg width="80" height="40" viewBox="0 0 80 40" fill="none" xmlns="http://www.w3.org/2000/svg">
<path d="M42.9724 0H35.3037V40H57.7984L50.7972 32.9647H42.9439L42.9724 0Z" fill="white"/>
<path d="M79.2004 40H68.4501L48.54 19.9929L68.4359 0H79.2004L59.1909 20.107L79.2004 40Z" fill="white"/>
<path d="M25.0083 7.20631H30.9302V0.285156H5.35385C2.4 0.285156 0 2.68259 0 5.65084V18.0804C0 21.0486 2.4 23.4603 5.35385 23.4603H22.7219C23.7586 23.4603 24.5964 24.3023 24.5964 25.344V30.6383C24.5964 31.6801 23.7586 32.522 22.7219 32.522H0V39.9855H25.8462C28.8994 39.9855 31.3846 37.4882 31.3846 34.42V21.12C31.3846 18.1517 28.9846 15.74 26.0308 15.74H7.83905C6.80237 15.74 5.9645 14.8981 5.9645 13.8563V9.09001C5.9645 8.04827 6.80237 7.20631 7.83905 7.20631H25.0083Z" fill="white"/>
</svg>
