<?xml version="1.0" encoding="UTF-8" standalone="no"?>
<svg
   xmlns:dc="http://purl.org/dc/elements/1.1/"
   xmlns:cc="http://creativecommons.org/ns#"
   xmlns:rdf="http://www.w3.org/1999/02/22-rdf-syntax-ns#"
   xmlns:svg="http://www.w3.org/2000/svg"
   xmlns="http://www.w3.org/2000/svg"
   xmlns:sodipodi="http://sodipodi.sourceforge.net/DTD/sodipodi-0.dtd"
   xmlns:inkscape="http://www.inkscape.org/namespaces/inkscape"
   width="930.08362"
   height="961.20367"
   viewBox="0 0 930.08362 961.20367"
   version="1.1"
   id="svg14"
   sodipodi:docname="product-slide-mask.svg"
   style="fill:none"
   inkscape:version="0.92.4 (5da689c313, 2019-01-14)">
  <metadata
     id="metadata20">
    <rdf:RDF>
      <cc:Work
         rdf:about="">
        <dc:format>image/svg+xml</dc:format>
        <dc:type
           rdf:resource="http://purl.org/dc/dcmitype/StillImage" />
        <dc:title></dc:title>
      </cc:Work>
    </rdf:RDF>
  </metadata>
  <defs
     id="defs18" />
  <sodipodi:namedview
     pagecolor="#ffffff"
     bordercolor="#666666"
     borderopacity="1"
     objecttolerance="10"
     gridtolerance="10"
     guidetolerance="10"
     inkscape:pageopacity="0"
     inkscape:pageshadow="2"
     inkscape:window-width="1920"
     inkscape:window-height="1001"
     id="namedview16"
     showgrid="false"
     inkscape:pagecheckerboard="true"
     fit-margin-top="0"
     fit-margin-left="0"
     fit-margin-right="0"
     fit-margin-bottom="0"
     inkscape:zoom="0.49269311"
     inkscape:cx="444.98751"
     inkscape:cy="555.77035"
     inkscape:window-x="-9"
     inkscape:window-y="-9"
     inkscape:window-maximized="1"
     inkscape:current-layer="svg14" />
  <path
     d="M 0.26035181,961.20366 930.08364,958 V 403.381 c -0.01,109.873 -56.67,223.213 -117.53,319.39 -73.028,115.396 -185.73,203.243 -319.483,230.438 -90.618,18.425 -173.395,-19.567 -257.75,-58.284 l -0.002,-0.002 c -28.43,-13.048 -57.039,-26.179 -86.189,-37.261 C 107.66164,841.898 47.014362,826.05025 0.10936181,815.96625 L 4.3258918,213.473 C 51.622892,130.172 96.964642,47.633899 185.60964,15.292399 215.14164,4.5176594 244.95264,0.00196587 274.89164,0 L 0.10645181,0.30515847 C 4.3258918,213.473 -1.2261382,672.47828 0.26035181,961.20366 Z"
     id="path6"
     inkscape:connector-curvature="0"
     style="fill:#ffffff"
     sodipodi:nodetypes="cccccccccccccc" />
  <path
     d="M 930.08364,403.288 V 0 h -655.153 c 79.268,0.00520886 159.43,31.645799 237.675,62.529399 10.71,4.2276 21.385,8.441 32.017,12.5571 26.128,10.1157 53.44,19.4129 80.933,28.771501 117.356,39.948 237.988,81.011 283.748,191.619 14.49,35.044 20.78,71.235 20.78,107.811 z"
     id="path8"
     inkscape:connector-curvature="0"
     style="fill:#ffffff" />
  <path
     d="m 493.07064,953.209 c 133.753,-27.195 246.455,-115.042 319.483,-230.438 60.86,-96.177 117.52,-209.517 117.53,-319.39 v -0.093 c 0,-36.576 -6.29,-72.767 -20.78,-107.811 -45.76,-110.608 -166.392,-151.671 -283.748,-191.619 -27.493,-9.358601 -54.805,-18.655801 -80.933,-28.771501 -10.632,-4.1161 -21.307,-8.3295 -32.017,-12.5571 C 434.36064,31.645799 354.19864,0.00520886 274.93064,0 h -0.039 c -29.939,0.00196587 -59.75,4.5176594 -89.282,15.292399 C 96.964642,47.633899 51.622892,130.172 4.3258918,213.473 l -0.0177,66.66241 v 0 C 38.317152,259.65641 73.649642,240.805 102.27364,217.852 c 19.613,-15.727 38.548,-32.923 57.431,-50.071 61.315,-55.684 98.815,-122.577401 180.383,-125.281001 99.136,-3.2858 202.137,74.559001 279.279,138.524001 7.664,6.354 15.302,12.688 22.931,18.93 18.749,15.339 38.692,30.326 58.766,45.411 85.69,64.394 173.77,130.587 181.58,233.742 9.9,130.889 -93.41,241.421 -194.642,324.89 -91.108,75.117 -207.403,116.932 -324.659,103.268 -79.442,-9.257 -137.238,-62.738 -196.136,-117.24 -19.851,-18.369 -39.827,-36.854 -60.8,-53.8 C 76.572642,712.117 40.497462,688.75651 4.6634618,667.85051 L 13.743642,821.707 c 46.905,10.084 93.917998,20.191 135.385998,35.955 29.15,11.082 57.759,24.213 86.189,37.261 l 0.002,0.002 c 84.355,38.717 167.132,76.709 257.75,58.284 z"
     id="path10"
     inkscape:connector-curvature="0"
     style="fill:#ffffff"
     sodipodi:nodetypes="cccscsccccccccccscccccccccccccc" />
  <path
     d="m 493.07064,953.209 c 133.753,-27.195 246.455,-115.042 319.483,-230.438 60.86,-96.177 117.52,-209.517 117.53,-319.39 v -0.093 c 0,-36.576 -6.29,-72.767 -20.78,-107.811 -45.76,-110.608 -166.392,-151.671 -283.748,-191.619 -27.493,-9.358601 -54.805,-18.655801 -80.933,-28.771501 -10.632,-4.1161 -21.307,-8.3295 -32.017,-12.5571 C 434.36064,31.645799 354.19864,0.00520886 274.93064,0 h -0.039 c -29.939,0.00196587 -59.75,4.5176594 -89.282,15.292399 C 96.964642,47.633899 47.317332,131.24839 0.02033181,214.54939 l 0.3411,64.50963 0.71758999,4.66436 C 35.087982,263.24438 73.649642,240.805 102.27364,217.852 c 19.613,-15.727 38.548,-32.923 57.431,-50.071 61.315,-55.684 122.069,-110.857601 203.638,-113.561101 99.135,-3.2858 178.882,62.839101 256.024,126.804101 7.664,6.354 15.302,12.688 22.931,18.93 18.749,15.339 38.692,30.326 58.766,45.411 85.69,64.394 173.77,130.587 181.58,233.742 9.9,130.889 -93.41,241.421 -194.642,324.89 -91.108,75.117 -209.152,115.667 -326.408,102.003 -79.441,-9.257 -135.489,-61.473 -194.387,-115.975 -19.851,-18.369 -39.827,-36.854 -60.8,-53.8 C 76.572642,712.117 40.497462,688.75651 4.6634618,667.85051 L 0.10936181,815.96625 C 47.014362,826.05025 107.66164,841.898 149.12964,857.662 c 29.15,11.082 57.759,24.213 86.189,37.261 l 0.003,0.002 c 84.354,38.717 167.131,76.709 257.749,58.284 z"
     id="path12"
     inkscape:connector-curvature="0"
     style="fill:#ffd155"
     sodipodi:nodetypes="cccscsccccccccccscccccccccccccc" />
</svg>
